<svg width="9" height="16" viewBox="0 0 9 16" fill="none" xmlns="http://www.w3.org/2000/svg">
<path d="M4.125 0.5C4.47018 0.5 4.75 0.779822 4.75 1.125V14.6251C4.75 14.9702 4.47018 15.2501 4.125 15.2501C3.77982 15.2501 3.5 14.9702 3.5 14.6251V1.125C3.5 0.779822 3.77982 0.5 4.125 0.5Z" fill="#687684"/>
<path d="M0.625 6.67529C0.970178 6.67529 1.25 6.95511 1.25 7.30029V14.6251C1.25 14.9702 0.970178 15.2501 0.625 15.2501C0.279822 15.2501 0 14.9702 0 14.6251V7.30029C0 6.95511 0.279822 6.67529 0.625 6.67529Z" fill="#687684"/>
<path d="M8.25 5.30029C8.25 4.95512 7.97018 4.67529 7.625 4.67529C7.27982 4.67529 7 4.95512 7 5.30029V14.6251C7 14.9702 7.27982 15.2501 7.625 15.2501C7.97018 15.2501 8.25 14.9702 8.25 14.6251V5.30029Z" fill="#687684"/>
</svg>
