<svg width="19" height="18" viewBox="0 0 19 18" fill="none" xmlns="http://www.w3.org/2000/svg">
<path fill-rule="evenodd" clip-rule="evenodd" d="M1.5 0.75C1.5 0.335786 1.16421 0 0.75 0C0.335786 0 0 0.335786 0 0.75V17.25C0 17.6642 0.335786 18 0.75 18C1.16421 18 1.5 17.6642 1.5 17.25V15.75H11C11.9665 15.75 12.75 14.9665 12.75 14V11.75H16.5C17.4665 11.75 18.25 10.9665 18.25 10V8C18.25 7.0335 17.4665 6.25 16.5 6.25H15.25V4C15.25 3.0335 14.4665 2.25 13.5 2.25H1.5V0.75ZM1.5 3.75V6.25H13.75V4C13.75 3.86193 13.6381 3.75 13.5 3.75H1.5ZM1.5 7.75V10.25H16.5C16.6381 10.25 16.75 10.1381 16.75 10V8C16.75 7.86193 16.6381 7.75 16.5 7.75H1.5ZM1.5 11.75V14.25H11C11.1381 14.25 11.25 14.1381 11.25 14V11.75H1.5Z" fill="#4C9EEB"/>
</svg>