<svg width="64" height="64" viewBox="0 0 64 64" fill="none" xmlns="http://www.w3.org/2000/svg">
<path d="M54.0003 16.5016C54.3978 16.5018 54.7788 16.66 55.0599 16.941C55.3411 17.2222 55.4993 17.6039 55.4994 18.0016C55.4994 18.3989 55.3416 18.7799 55.0609 19.0612V19.0621L27.0609 47.0612L27.0599 47.0602C26.9207 47.1996 26.7556 47.311 26.5736 47.3864C26.3918 47.4616 26.197 47.4987 26.0003 47.4987V47.4996C25.8033 47.4998 25.6081 47.4617 25.4261 47.3864C25.2443 47.3111 25.0789 47.2003 24.9398 47.0612L10.9398 33.0621L10.9388 33.0612C10.6581 32.7799 10.5003 32.3989 10.5003 32.0016C10.5004 31.6039 10.6586 31.2223 10.9398 30.941C11.2209 30.66 11.6019 30.5018 11.9994 30.5016C12.3969 30.5014 12.7785 30.6592 13.0599 30.9401H13.0609L25.9994 43.8776L52.9388 16.9401H52.9398C53.2212 16.6592 53.6028 16.5014 54.0003 16.5016Z" fill="#EC226C" stroke="black"/>
</svg>
