<svg width="24" height="24" viewBox="0 0 24 24" fill="none" xmlns="http://www.w3.org/2000/svg">
<path d="M18.0901 20H14.0901C13.6801 20 13.3401 19.66 13.3401 19.25C13.3401 18.84 13.6801 18.5 14.0901 18.5H18.0901C18.5001 18.5 18.8401 18.84 18.8401 19.25C18.8401 19.66 18.5001 20 18.0901 20Z" fill="#687684"/>
<path d="M16.0901 22C15.6801 22 15.3401 21.66 15.3401 21.25V17.25C15.3401 16.84 15.6801 16.5 16.0901 16.5C16.5001 16.5 16.8401 16.84 16.8401 17.25V21.25C16.8401 21.66 16.5001 22 16.0901 22Z" fill="#687684"/>
<path d="M11.75 11.37C11.72 11.37 11.7001 11.37 11.6701 11.37C11.6201 11.36 11.5501 11.36 11.4901 11.37C8.59007 11.28 6.40004 9 6.40004 6.19C6.39004 4.81 6.93005 3.51 7.91005 2.53C8.89005 1.55 10.19 1 11.58 1C14.44 1 16.77 3.33 16.77 6.19C16.77 9 14.58 11.27 11.78 11.37C11.77 11.37 11.76 11.37 11.75 11.37ZM11.58 2.5C10.59 2.5 9.67005 2.88999 8.97005 3.57999C8.28005 4.27999 7.90004 5.19999 7.90004 6.17999C7.90004 8.17999 9.46003 9.79998 11.45 9.85999C11.51 9.84999 11.64 9.84999 11.77 9.85999C13.74 9.76999 15.27 8.15999 15.27 6.17999C15.27 4.15999 13.61 2.5 11.58 2.5Z" fill="#687684"/>
<path d="M11.58 22.3099C9.54002 22.3099 7.61002 21.7799 6.15002 20.7999C4.76002 19.8699 4 18.5999 4 17.2299C4 15.86 4.77002 14.5999 6.15002 13.6799C9.14002 11.6799 14.0001 11.6799 16.9901 13.6799C17.3301 13.9099 17.43 14.3799 17.2 14.7199C16.97 15.0699 16.5 15.1599 16.16 14.9299C13.67 13.2699 9.47004 13.2699 6.98004 14.9299C6.02004 15.5699 5.5 16.38 5.5 17.2299C5.5 18.0799 6.02004 18.9099 6.98004 19.5499C8.19004 20.3599 9.82001 20.7999 11.57 20.7999C11.98 20.7999 12.32 21.1399 12.32 21.5499C12.32 21.9599 11.99 22.3099 11.58 22.3099Z" fill="#687684"/>
</svg>
