<svg width="24" height="24" viewBox="0 0 24 24" fill="none" xmlns="http://www.w3.org/2000/svg">
<path d="M2 2.66667C2 2.48986 2.07024 2.32029 2.19527 2.19526C2.32029 2.07024 2.48987 2 2.66668 2H4.66672C4.81543 2.00004 4.95986 2.0498 5.07704 2.14137C5.19421 2.23293 5.27741 2.36105 5.3134 2.50533L5.85341 4.66667H21.3337C21.4323 4.66673 21.5297 4.68865 21.6188 4.73087C21.7079 4.77308 21.7865 4.83454 21.849 4.9108C21.9115 4.98706 21.9563 5.07623 21.9802 5.17189C22.004 5.26755 22.0064 5.36732 21.9871 5.464L20.6537 12.1307C20.6245 12.276 20.5477 12.4075 20.4354 12.5044C20.3232 12.6012 20.1818 12.6579 20.0337 12.6653L7.50411 13.2947L7.88678 15.3333H19.3337C19.5105 15.3333 19.6801 15.4036 19.8051 15.5286C19.9301 15.6536 20.0004 15.8232 20.0004 16C20.0004 16.1768 19.9301 16.3464 19.8051 16.4714C19.6801 16.5964 19.5105 16.6667 19.3337 16.6667H7.33344C7.17801 16.6665 7.02752 16.6121 6.90798 16.5127C6.78844 16.4134 6.70736 16.2754 6.67876 16.1227L4.68005 5.476L4.14671 3.33333H2.66668C2.48987 3.33333 2.32029 3.2631 2.19527 3.13807C2.07024 3.01305 2 2.84348 2 2.66667ZM6.13608 6L7.25611 11.972L19.4484 11.36L20.5204 6H6.13608ZM8.6668 16.6667C7.95954 16.6667 7.28125 16.9476 6.78114 17.4477C6.28104 17.9478 6.00008 18.6261 6.00008 19.3333C6.00008 20.0406 6.28104 20.7189 6.78114 21.219C7.28125 21.719 7.95954 22 8.6668 22C9.37406 22 10.0523 21.719 10.5525 21.219C11.0526 20.7189 11.3335 20.0406 11.3335 19.3333C11.3335 18.6261 11.0526 17.9478 10.5525 17.4477C10.0523 16.9476 9.37406 16.6667 8.6668 16.6667ZM18.0003 16.6667C17.2931 16.6667 16.6148 16.9476 16.1147 17.4477C15.6146 17.9478 15.3336 18.6261 15.3336 19.3333C15.3336 20.0406 15.6146 20.7189 16.1147 21.219C16.6148 21.719 17.2931 22 18.0003 22C18.7076 22 19.3859 21.719 19.886 21.219C20.3861 20.7189 20.667 20.0406 20.667 19.3333C20.667 18.6261 20.3861 17.9478 19.886 17.4477C19.3859 16.9476 18.7076 16.6667 18.0003 16.6667ZM8.6668 18C9.02043 18 9.35957 18.1405 9.60963 18.3905C9.85968 18.6406 10.0002 18.9797 10.0002 19.3333C10.0002 19.687 9.85968 20.0261 9.60963 20.2761C9.35957 20.5262 9.02043 20.6667 8.6668 20.6667C8.31317 20.6667 7.97403 20.5262 7.72397 20.2761C7.47392 20.0261 7.33344 19.687 7.33344 19.3333C7.33344 18.9797 7.47392 18.6406 7.72397 18.3905C7.97403 18.1405 8.31317 18 8.6668 18ZM18.0003 18C18.354 18 18.6931 18.1405 18.9431 18.3905C19.1932 18.6406 19.3337 18.9797 19.3337 19.3333C19.3337 19.687 19.1932 20.0261 18.9431 20.2761C18.6931 20.5262 18.354 20.6667 18.0003 20.6667C17.6467 20.6667 17.3075 20.5262 17.0575 20.2761C16.8074 20.0261 16.667 19.687 16.667 19.3333C16.667 18.9797 16.8074 18.6406 17.0575 18.3905C17.3075 18.1405 17.6467 18 18.0003 18Z" fill="black"/>
</svg>
