<svg width="24" height="22" viewBox="0 0 24 22" fill="none" xmlns="http://www.w3.org/2000/svg">
<path d="M2.5 3.75H12.75C12.8881 3.75 13 3.86193 13 4C13 4.13807 12.8881 4.25 12.75 4.25H2.5C1.94771 4.25 1.5 4.69772 1.5 5.25V6.08789L1.71973 6.2373L10.4316 12.1367C10.7362 12.343 11.1247 12.3634 11.4453 12.2002L11.5781 12.1191L15.6035 9.20996C15.7688 9.09046 16 9.20813 16 9.41211C16 9.47213 15.9785 9.52948 15.9404 9.57422L15.8965 9.61426L11.8711 12.5244C11.3923 12.8705 10.7583 12.9018 10.251 12.6133L10.1514 12.5508L2.28027 7.2207L1.5 6.69238V19.25C1.5 19.8023 1.94772 20.25 2.5 20.25H18.5C19.0523 20.25 19.5 19.8023 19.5 19.25V11C19.5 10.8619 19.6119 10.75 19.75 10.75C19.8881 10.75 20 10.8619 20 11V19.25C20 20.0784 19.3284 20.75 18.5 20.75H2.5C1.67157 20.75 1 20.0784 1 19.25V5.25C1 4.42157 1.67157 3.75 2.5 3.75ZM19.5 0.5C19.6381 0.5 19.75 0.611929 19.75 0.75V3.75H22.75C22.8881 3.75 23 3.86193 23 4C23 4.13807 22.8881 4.25 22.75 4.25H19.75V7.25C19.75 7.38807 19.6381 7.5 19.5 7.5C19.3619 7.5 19.25 7.38807 19.25 7.25V4.25H16.25C16.1119 4.25 16 4.13807 16 4C16 3.86193 16.1119 3.75 16.25 3.75H19.25V0.75C19.25 0.611929 19.3619 0.5 19.5 0.5Z" fill="white" stroke="white"/>
</svg>