<svg width="24" height="24" viewBox="0 0 24 24" fill="none" xmlns="http://www.w3.org/2000/svg">
<path d="M5.73841 4.48412C5.77777 3.68885 5.16394 3.01244 4.36866 2.97346L3.8887 2.94987C3.09335 2.9109 2.4171 3.52435 2.37774 4.3197L2.00179 12.0009C1.96243 12.7962 2.57626 13.4726 3.37154 13.5117L3.85135 13.5353C4.6467 13.5744 5.3231 12.9608 5.36247 12.1655L5.73841 4.48412Z" fill="#687684"/>
<path d="M6.67413 19.7787C3.86998 21.9818 14.1647 23.0635 12.0416 17.055C11.9064 16.6721 11.5609 15.7329 11.5609 15.7329C11.5609 15.7329 11.6259 15.6912 11.7318 15.6135C11.8985 15.7221 12.0741 15.7995 12.2557 15.8427C12.2506 15.8459 12.2466 15.8498 12.2419 15.853C12.2419 15.853 18.3302 18.3088 20.4135 15.2747C20.4135 15.2747 20.7738 13.9436 20.2129 13.6767C20.2129 13.6767 23.6981 11.9277 20.9339 9.48414C20.9339 9.48414 22.2101 7.04101 19.4918 6.55981C19.4918 6.55981 21.0542 3.91606 18.0978 3.51584C18.0978 3.51584 13.724 -0.0495505 6.63391 3.75582L6.19347 12.8486C6.19347 12.8486 9.47788 17.5758 6.67413 19.7787Z" fill="#687684"/>
</svg>
