<svg width="24" height="24" viewBox="0 0 24 24" fill="none" xmlns="http://www.w3.org/2000/svg">
<path d="M19.876 13.0073L18.5049 13.6948L19.7656 14.2953C19.7732 14.3508 19.7801 14.4305 19.7744 14.5346C19.7669 14.6721 19.7456 14.811 19.7246 14.9194C19.7225 14.9302 19.7198 14.9407 19.7178 14.9506C19.3326 15.4517 18.7797 15.757 18.0918 15.9135C17.3477 16.0827 16.4888 16.0696 15.6445 15.9584C15.0486 15.88 14.48 15.7546 13.9932 15.6264L14.1553 15.5229L12.4287 15.1127C12.3386 15.0913 12.2425 15.0506 12.1416 14.9848L11.707 14.7016L11.2881 15.0082C11.2425 15.0417 11.2067 15.0667 11.1836 15.0825C11.1722 15.0902 11.164 15.0959 11.1592 15.0991C11.1568 15.1006 11.1548 15.1016 11.1543 15.102V15.103L11.1553 15.102H11.1562L10.6494 15.4272L10.8291 15.9155L10.667 16.0268L10.9053 16.1235C10.9077 16.1301 10.9105 16.1369 10.9131 16.144C10.9475 16.2377 10.9945 16.3666 11.0459 16.5073C11.1494 16.7905 11.268 17.1181 11.334 17.3051L11.4131 17.5444C11.7653 18.7094 11.5178 19.401 11.1406 19.8305C10.6907 20.3427 9.90399 20.6582 9.02441 20.7504C8.13311 20.8439 7.35722 20.6868 7.00977 20.4819H7.00879C7.03949 20.4511 7.08107 20.4131 7.1377 20.3686L7.2998 20.2338C8.9212 18.8192 8.67434 16.7285 8.19922 15.2573C7.9443 14.468 7.59781 13.7618 7.31934 13.2582C7.17934 13.0051 7.05376 12.7996 6.96289 12.6557C6.96011 12.6513 6.95682 12.6473 6.9541 12.643L7.36133 4.22601C10.5747 2.59912 13.1288 2.57728 14.8701 2.94281C15.7816 3.13419 16.4851 3.43363 16.9541 3.68109C17.1884 3.80473 17.3635 3.91534 17.4766 3.99164C17.533 4.02971 17.5739 4.05911 17.5986 4.07758C17.6108 4.08666 17.6187 4.09375 17.623 4.09711C17.6238 4.09773 17.6245 4.09866 17.625 4.09906L17.7881 4.2309L17.9971 4.25922C18.625 4.34423 18.8892 4.53142 19.001 4.65765C19.1081 4.77865 19.16 4.93937 19.1533 5.16547C19.1464 5.4005 19.0758 5.65282 18.9922 5.86469C18.952 5.96651 18.9123 6.05049 18.8838 6.10687C18.8696 6.13488 18.8584 6.15604 18.8516 6.1684C18.8491 6.17289 18.8469 6.17605 18.8457 6.17816L18.2959 7.1098L19.3613 7.29828C19.9254 7.39818 20.1827 7.58161 20.3027 7.71722C20.4205 7.85048 20.476 8.01741 20.4824 8.22601C20.4891 8.44349 20.4399 8.6728 20.3779 8.86273C20.3482 8.95394 20.3175 9.02803 20.2959 9.07758C20.2851 9.1022 20.2774 9.12103 20.2725 9.13129L20.2686 9.13812M19.876 13.0073H19.875L19.876 13.0063V13.0073ZM19.876 13.0073L19.877 13.0063C19.8802 13.0046 19.8866 13.0013 19.8955 12.9965C19.9134 12.9869 19.9418 12.9711 19.9785 12.9496C20.0526 12.9063 20.159 12.8401 20.2793 12.7543C20.5266 12.578 20.8025 12.3401 20.998 12.0639C21.1898 11.793 21.2758 11.5289 21.2432 11.2612C21.2102 10.9914 21.0398 10.5789 20.4375 10.0463L19.9971 9.65765L20.2686 9.13812M20.2686 9.13812L20.2676 9.14008L20.2686 9.1391V9.13812ZM3.8877 12.7866H3.88867C4.22208 12.8027 4.5128 12.5791 4.59277 12.267L4.61328 12.1284L4.98926 4.44769V4.44672C5.0056 4.1137 4.78257 3.82355 4.4707 3.74359L4.33203 3.72211L3.85156 3.69867L3.71191 3.70648C3.43946 3.7486 3.216 3.95058 3.14746 4.2182L3.12695 4.35687L2.75098 12.0375L2.75781 12.1772C2.79955 12.4496 3.00194 12.673 3.26953 12.7416L3.4082 12.7621L3.8877 12.7866Z" stroke="#687684" stroke-width="1.5"/>
</svg>
