<svg width="24" height="24" viewBox="0 0 24 24" fill="none" xmlns="http://www.w3.org/2000/svg">
<g clip-path="url(#clip0_1107_3605)">
<path d="M5.28129 2.21439C5.04097 1.92854 4.65133 1.92854 4.41101 2.21439L1.2253 6.00368C0.924899 6.361 0.924899 6.94034 1.2253 7.29765C1.52571 7.65497 2.01275 7.65497 2.31316 7.29765L4.07692 5.19971V16.1664C4.07692 18.6931 5.79891 20.7413 7.92308 20.7413H12.8462C13.271 20.7413 13.6154 20.3316 13.6154 19.8262C13.6154 19.321 13.271 18.9113 12.8462 18.9113H7.92308C6.64857 18.9113 5.61539 17.6824 5.61539 16.1664V5.19971L7.37915 7.29765C7.67955 7.65497 8.1666 7.65497 8.467 7.29765C8.76741 6.94034 8.76741 6.361 8.467 6.00368L5.28129 2.21439Z" fill="#687684"/>
<path d="M18.7187 20.7856C18.9591 21.0714 19.3486 21.0714 19.589 20.7856L22.7747 16.9964C23.0751 16.6391 23.0751 16.0597 22.7747 15.7024C22.4743 15.345 21.9873 15.345 21.6869 15.7024L19.9231 17.8003V6.83362C19.9231 4.30699 18.2011 2.25874 16.077 2.25874H11.1538C10.729 2.25874 10.3846 2.66839 10.3846 3.17371C10.3846 3.67905 10.729 4.08869 11.1538 4.08869H16.077C17.3514 4.08869 18.3846 5.31763 18.3846 6.83362V17.8003L16.6208 15.7024C16.3204 15.345 15.8334 15.345 15.533 15.7024C15.2326 16.0597 15.2326 16.6391 15.533 16.9964L18.7187 20.7856Z" fill="#687684"/>
</g>
<defs>
<clipPath id="clip0_1107_3605">
<rect width="22" height="19" fill="white" transform="translate(1 2)"/>
</clipPath>
</defs>
</svg>
