<svg width="24" height="17" viewBox="0 0 24 17" fill="none" xmlns="http://www.w3.org/2000/svg">
<path d="M4.6705 0.191824C4.40833 -0.0639415 3.98327 -0.0639412 3.7211 0.191824L0.245785 3.58224C-0.0819282 3.90195 -0.0819282 4.4203 0.245785 4.74C0.573497 5.05971 1.10482 5.05971 1.43254 4.74L3.35664 2.8629V12.6752C3.35664 14.9359 5.23517 16.7685 7.55245 16.7685H12.9231C13.3865 16.7685 13.7622 16.402 13.7622 15.9498C13.7622 15.4977 13.3865 15.1312 12.9231 15.1312H7.55245C6.16208 15.1312 5.03497 14.0316 5.03497 12.6752V2.8629L6.95907 4.74C7.28678 5.05971 7.81811 5.05971 8.14582 4.74C8.47354 4.4203 8.47354 3.90195 8.14582 3.58224L4.6705 0.191824Z" fill="#687684"/>
<path d="M19.3295 16.8082C19.5917 17.0639 20.0167 17.0639 20.2789 16.8082L23.7542 13.4178C24.0819 13.0981 24.0819 12.5797 23.7542 12.26C23.4265 11.9403 22.8952 11.9403 22.5675 12.26L20.6434 14.1371V4.32481C20.6434 2.06414 18.7648 0.231502 16.4476 0.231502H11.0769C10.6135 0.231502 10.2378 0.59803 10.2378 1.05016C10.2378 1.5023 10.6135 1.86882 11.0769 1.86882H16.4476C17.8379 1.86882 18.965 2.9684 18.965 4.32481V14.1371L17.0409 12.26C16.7132 11.9403 16.1819 11.9403 15.8542 12.26C15.5265 12.5797 15.5265 13.0981 15.8542 13.4178L19.3295 16.8082Z" fill="#687684"/>
</svg>
