<svg width="24" height="24" viewBox="0 0 24 24" fill="none" xmlns="http://www.w3.org/2000/svg">
<path fill-rule="evenodd" clip-rule="evenodd" d="M11.5363 2.19788C11.7924 1.93404 12.2076 1.93404 12.4637 2.19788L17.1697 7.04647C17.4898 7.37625 17.4898 7.91096 17.1697 8.24075C16.8497 8.57055 16.3306 8.57055 16.0106 8.24075L12.8197 4.95324V15.0751C12.8197 15.5416 12.4527 15.9197 12 15.9197C11.5473 15.9197 11.1803 15.5416 11.1803 15.0751V4.95324L7.98943 8.24075C7.66932 8.57055 7.15035 8.57055 6.83024 8.24075C6.51014 7.91096 6.51014 7.37625 6.83024 7.04647L11.5363 2.19788ZM2.81967 12.8795C3.27236 12.8795 3.63934 13.2575 3.63934 13.724V19.1287C3.63934 19.7816 4.15311 20.311 4.78689 20.311H19.2131C19.8468 20.311 20.3607 19.7816 20.3607 19.1287V13.724C20.3607 13.2575 20.7276 12.8795 21.1803 12.8795C21.633 12.8795 22 13.2575 22 13.724V19.1287C22 20.7145 20.7523 22 19.2131 22H4.78689C3.24773 22 2 20.7145 2 19.1287V13.724C2 13.2575 2.36698 12.8795 2.81967 12.8795Z" fill="#687684"/>
</svg>
