<svg width="24" height="24" viewBox="0 0 24 24" fill="none" xmlns="http://www.w3.org/2000/svg">
<path d="M5.73841 19.0437C5.77777 19.8389 5.16394 20.5153 4.36866 20.5543L3.8887 20.5779C3.09335 20.6169 2.4171 20.0034 2.37774 19.2081L2.00179 11.5269C1.96243 10.7315 2.57626 10.0551 3.37154 10.0161L3.85135 9.99248C4.6467 9.95335 5.3231 10.567 5.36247 11.3622L5.73841 19.0437Z" fill="#687684"/>
<path d="M6.67413 3.74909C3.86998 1.54594 14.1647 0.464286 12.0416 6.4728C11.9064 6.85563 11.5609 7.79491 11.5609 7.79491C11.5609 7.79491 11.6259 7.83659 11.7318 7.91424C11.8985 7.80566 12.0741 7.72824 12.2557 7.68508C12.2506 7.68184 12.2466 7.67797 12.2419 7.67472C12.2419 7.67472 18.3302 5.21899 20.4135 8.25306C20.4135 8.25306 20.7738 9.58413 20.2129 9.85103C20.2129 9.85103 23.6981 11.6 20.9339 14.0436C20.9339 14.0436 22.2101 16.4868 19.4918 16.968C19.4918 16.968 21.0542 19.6117 18.0978 20.0119C18.0978 20.0119 13.724 23.5773 6.63391 19.772L6.19347 10.6792C6.19347 10.6792 9.47788 5.95193 6.67413 3.74909Z" fill="#687684"/>
</svg>
