<svg width="24" height="24" viewBox="0 0 24 24" fill="none" xmlns="http://www.w3.org/2000/svg">
<path d="M19.876 10.5205L18.5049 9.83301L19.7656 9.23242C19.7732 9.17693 19.7801 9.09728 19.7744 8.99316C19.7669 8.85562 19.7456 8.71674 19.7246 8.6084C19.7225 8.59762 19.7198 8.58706 19.7178 8.57715C19.3326 8.07607 18.7797 7.77077 18.0918 7.61426C17.3477 7.44502 16.4888 7.4582 15.6445 7.56934C15.0486 7.64779 14.48 7.77315 13.9932 7.90137L14.1553 8.00488L12.4287 8.41504C12.3386 8.4365 12.2425 8.47722 12.1416 8.54297L11.707 8.82617L11.2881 8.51953C11.2425 8.48612 11.2067 8.46111 11.1836 8.44531C11.1722 8.43756 11.164 8.4319 11.1592 8.42871C11.1568 8.42713 11.1548 8.42614 11.1543 8.42578V8.4248L11.1553 8.42578H11.1562L10.6494 8.10059L10.8291 7.6123L10.667 7.50098L10.9053 7.4043C10.9077 7.39767 10.9105 7.39082 10.9131 7.38379C10.9475 7.29008 10.9945 7.16121 11.0459 7.02051C11.1494 6.73723 11.268 6.40963 11.334 6.22266L11.4131 5.9834C11.7653 4.8184 11.5178 4.12678 11.1406 3.69727C10.6907 3.18502 9.90399 2.86958 9.02441 2.77734C8.13311 2.6839 7.35722 2.84094 7.00977 3.0459H7.00879C7.03949 3.0767 7.08107 3.11469 7.1377 3.15918L7.2998 3.29395C8.9212 4.70856 8.67434 6.7993 8.19922 8.27051C7.9443 9.05977 7.59781 9.76595 7.31934 10.2695C7.17934 10.5227 7.05376 10.7282 6.96289 10.8721C6.96011 10.8765 6.95682 10.8805 6.9541 10.8848L7.36133 19.3018C10.5747 20.9286 13.1288 20.9505 14.8701 20.585C15.7816 20.3936 16.4851 20.0941 16.9541 19.8467C17.1884 19.723 17.3635 19.6124 17.4766 19.5361C17.533 19.4981 17.5739 19.4687 17.5986 19.4502C17.6108 19.4411 17.6187 19.434 17.623 19.4307C17.6238 19.43 17.6245 19.4291 17.625 19.4287L17.7881 19.2969L17.9971 19.2686C18.625 19.1835 18.8892 18.9964 19.001 18.8701C19.1081 18.7491 19.16 18.5884 19.1533 18.3623C19.1464 18.1273 19.0758 17.875 18.9922 17.6631C18.952 17.5613 18.9123 17.4773 18.8838 17.4209C18.8696 17.3929 18.8584 17.3717 18.8516 17.3594C18.8491 17.3549 18.8469 17.3517 18.8457 17.3496L18.2959 16.418L19.3613 16.2295C19.9254 16.1296 20.1827 15.9462 20.3027 15.8105C20.4205 15.6773 20.476 15.5104 20.4824 15.3018C20.4891 15.0843 20.4399 14.855 20.3779 14.665C20.3482 14.5738 20.3175 14.4997 20.2959 14.4502C20.2851 14.4256 20.2774 14.4067 20.2725 14.3965L20.2686 14.3896M19.876 10.5205H19.875L19.876 10.5215V10.5205ZM19.876 10.5205L19.877 10.5215C19.8802 10.5232 19.8866 10.5264 19.8955 10.5312C19.9134 10.5409 19.9418 10.5566 19.9785 10.5781C20.0526 10.6215 20.159 10.6877 20.2793 10.7734C20.5266 10.9498 20.8025 11.1876 20.998 11.4639C21.1898 11.7348 21.2758 11.9988 21.2432 12.2666C21.2102 12.5363 21.0398 12.9489 20.4375 13.4814L19.9971 13.8701L20.2686 14.3896M20.2686 14.3896L20.2676 14.3877L20.2686 14.3887V14.3896ZM3.8877 10.7412H3.88867C4.22208 10.725 4.5128 10.9486 4.59277 11.2607L4.61328 11.3994L4.98926 19.0801V19.0811C5.0056 19.4141 4.78257 19.7042 4.4707 19.7842L4.33203 19.8057L3.85156 19.8291L3.71191 19.8213C3.43946 19.7792 3.216 19.5772 3.14746 19.3096L3.12695 19.1709L2.75098 11.4902L2.75781 11.3506C2.79955 11.0781 3.00194 10.8548 3.26953 10.7861L3.4082 10.7656L3.8877 10.7412Z" stroke="#687684" stroke-width="1.5"/>
</svg>
